<svg width="84" height="65" viewBox="0 0 84 65" fill="none" xmlns="http://www.w3.org/2000/svg">
<g clip-path="url(#clip0_1_14)">
<path d="M31.5052 0.42564C31.143 1.2296 31.0065 2.18069 31.0432 3.58894C31.0747 4.7292 31.164 5.32298 31.4212 6.03761C31.7362 6.91513 32.5605 8.16574 33.915 9.83146C34.0567 10.0049 34.0725 10.0469 33.9937 10.0154C33.6787 9.89452 32.445 9.58975 31.5525 9.40583C26.9902 8.49153 22.281 8.79104 17.9025 10.2834C14.7525 11.3553 11.76 13.0736 9.20325 15.2805C8.37375 16.0004 6.8985 17.4875 6.25275 18.2599C0.960749 24.6023 -1.08675 32.7995 0.58275 40.9075C1.5435 45.5421 3.8745 50.0295 7.1505 53.5239C7.959 54.3909 9.1245 55.4891 9.78075 55.9988C9.91725 56.1039 9.92775 56.1407 9.954 56.6294C9.99075 57.2389 10.0485 57.4806 10.4265 58.6682C10.9462 60.2813 11.0985 60.9382 11.2823 62.3674C11.34 62.8141 11.3977 63.1872 11.4135 63.1977C11.4555 63.2397 11.508 61.3743 11.4765 61.0748C11.4555 60.9066 11.3295 60.46 11.2035 60.0869C11.0723 59.7086 10.899 59.1306 10.815 58.7943C10.6102 57.9956 10.332 56.6872 10.3635 56.6609C10.374 56.6504 10.458 56.7345 10.5472 56.8501C10.7467 57.097 11.0723 57.3387 11.5763 57.6172L11.9438 57.8169L11.7075 57.612C10.5997 56.6661 10.1167 55.6415 9.9015 53.7551C9.744 52.4046 9.70725 52.1577 9.639 52.0315C9.60225 51.958 9.4185 51.7793 9.23475 51.6322C9.051 51.4798 8.81475 51.2381 8.70975 51.091C8.21625 50.3816 8.11125 49.2676 8.4315 48.1063C8.4525 48.0117 8.421 47.9907 8.20575 47.9329C7.82775 47.8331 6.8145 47.418 6.22125 47.1237C4.7565 46.3933 3.99 45.726 3.99 45.1795C3.99 44.7696 4.59375 44.2967 5.1135 44.2967C5.6805 44.2967 7.00875 44.8957 8.47875 45.8205C9.22425 46.2882 9.25575 46.304 9.4815 46.2672C9.6075 46.2514 9.7125 46.2094 9.7125 46.1779C9.7125 45.994 8.5155 45.0954 8.0745 44.943C7.72275 44.8222 7.59675 44.7381 7.2765 44.4176C6.90375 44.0445 6.50475 43.456 6.34725 43.0513C6.279 42.8779 6.22125 42.5837 6.2055 42.363C6.1845 42.0214 6.20025 41.9584 6.3105 41.785C6.384 41.6799 6.47325 41.496 6.51525 41.3804C6.573 41.207 6.58875 41.1912 6.6045 41.291C6.63075 41.4697 6.81975 41.4382 7.1085 41.1965C7.686 40.7183 7.9065 40.2716 7.8645 39.6779C7.833 39.2838 7.74375 39.0788 7.4655 38.7688C7.3395 38.6269 7.308 38.5744 7.3815 38.6112C7.539 38.6952 7.854 39.0578 7.97475 39.289C8.17425 39.6831 8.25825 40.0825 8.232 40.5344C8.20575 41.0546 8.09025 41.3226 7.72275 41.7482C6.8775 42.7308 6.75675 43.9236 7.4655 44.2442C7.7175 44.3545 7.84875 44.3072 7.791 44.118C7.77 44.055 7.74375 43.9709 7.728 43.9289C7.7175 43.8868 7.812 44.0077 7.94325 44.1969C8.13225 44.4754 8.274 44.6015 8.6205 44.8222C8.862 44.9798 9.345 45.3266 9.702 45.5946L10.3477 46.0833H10.7887C11.0302 46.0833 11.4082 46.1096 11.6287 46.1411L12.0278 46.1936L12.3532 45.9519C12.5317 45.8205 12.8468 45.5841 13.0463 45.4212C13.251 45.2636 13.629 45.0271 13.8915 44.901C14.1645 44.7696 14.427 44.6015 14.5057 44.5069C14.7998 44.1601 14.8155 43.6346 14.553 43.0671C14.4375 42.8149 14.301 42.652 13.9703 42.3525C13.4768 41.9058 13.335 41.6746 13.2983 41.2543C13.2457 40.7183 13.5345 39.9301 13.9388 39.4887C14.0962 39.3153 14.112 39.3048 14.0227 39.4414C13.9598 39.536 13.8757 39.7514 13.8337 39.9301C13.7603 40.1981 13.7603 40.3032 13.8127 40.5659C13.8915 40.96 14.1645 41.4066 14.5215 41.7114C14.8103 41.9584 14.9415 41.9847 15.015 41.8113C15.0623 41.7062 15.0675 41.7114 15.057 41.8585C15.0465 41.9794 15.0885 42.074 15.2145 42.2159C15.372 42.3998 15.414 42.4944 15.4455 42.7623C15.4718 42.9568 15.5505 42.92 15.7605 42.6205C15.8707 42.4628 15.96 42.3525 15.96 42.3735C15.96 42.426 15.1567 43.8711 14.9415 44.2074C14.553 44.8169 14.0647 45.2793 13.6657 45.4317C13.5293 45.4843 13.3088 45.5946 13.1827 45.6787C12.9097 45.8678 12.495 46.2567 12.495 46.3302C12.495 46.3723 12.7102 46.5037 12.7785 46.5037C12.789 46.5037 12.9465 46.3828 13.1302 46.2357C13.8967 45.6209 15.0308 44.9535 15.729 44.7118C16.128 44.5752 16.611 44.5332 16.8892 44.6067C17.3092 44.7223 17.6558 45.3266 17.5613 45.7785C17.451 46.2882 16.926 46.8715 16.191 47.2971C15.6607 47.6071 15.4297 47.6965 14.7577 47.8488C14.406 47.9277 14.1698 48.0117 14.0962 48.08C13.9598 48.2114 13.6657 48.9838 13.6185 49.3517C13.587 49.5934 13.5975 49.6144 13.9388 50.1346C14.4585 50.9176 15.1672 51.8529 15.4665 52.1471C15.813 52.494 16.3695 52.8513 16.9365 53.0982C17.8342 53.4818 19.425 53.7919 20.6325 53.8129L21.1313 53.8234L21.2467 53.5134C21.4042 53.114 21.7035 52.0526 21.8085 51.5376C22.0237 50.4604 22.0762 48.6738 21.9555 46.2672C21.8137 43.3824 21.7087 42.8149 20.6483 39.3258L20.517 38.9002L20.1547 38.6952C19.383 38.2749 18.9315 37.7914 18.7635 37.2134C18.7005 36.9927 18.6847 36.7878 18.7057 36.3674C18.732 35.7316 18.8633 35.2955 19.1152 34.9802C19.2255 34.8436 19.2517 34.7753 19.2045 34.7595C19.1677 34.7437 18.7845 34.6071 18.3487 34.4495C17.3407 34.0869 17.1413 34.0081 16.38 33.656C15.057 33.0518 14.1015 32.4737 13.461 31.8905C13.1407 31.6015 12.9255 31.4648 12.1432 31.0813C11.0355 30.54 10.3215 30.1249 10.1167 29.9147C9.58125 29.3472 10.0485 28.785 11.3767 28.4014C12.4058 28.1019 12.9832 27.9915 13.4925 27.9915C14.1225 27.9915 14.5793 28.0914 15.7185 28.4802C16.7108 28.8165 16.7423 28.827 17.8972 28.9006C18.6217 28.9479 18.7477 28.9689 19.0522 29.1108C19.341 29.2421 20.2283 29.4786 20.4225 29.4786C20.538 29.4786 20.4645 29.3315 20.2335 29.1108C19.7295 28.6221 19.341 27.9653 19.1467 27.2716C19.0942 27.093 18.9683 26.8565 18.816 26.6674C18.3015 26 18.165 25.6742 18.165 25.0805C18.165 24.7126 18.2857 24.0348 18.3802 23.8509C18.417 23.7773 18.3697 23.7615 18.018 23.7405C17.5403 23.709 17.1833 23.5513 16.8 23.194C16.1122 22.5477 16.0492 21.7437 16.6267 20.9766C17.3355 20.0518 18.2805 19.8731 19.1467 20.5142C19.4775 20.7559 19.8765 21.2498 20.0917 21.6754C20.1653 21.8173 20.2283 21.9434 20.2335 21.9487C20.2388 21.9592 20.37 21.9172 20.5222 21.8594C20.6745 21.8016 21.0788 21.7175 21.4252 21.6807C21.966 21.6176 22.113 21.5756 22.4857 21.3969C23.0212 21.1342 23.2522 21.0712 23.646 21.0712C24.486 21.0712 24.906 21.6965 24.8797 22.8998C24.8692 23.4357 24.8745 23.483 24.9847 23.5986C25.473 24.1031 25.893 25.1645 26.0662 26.2995C26.2342 27.4293 26.0925 28.4329 25.6515 29.1843C25.4887 29.4576 25.116 29.8569 24.8745 30.0041L24.7012 30.1091H25.3575C25.977 30.1091 26.7697 30.1932 27.3 30.3141C27.4837 30.3561 28.0927 30.3193 30.0037 30.1564C35.8575 29.6625 40.0732 29.3104 41.3438 29.2106C42.0945 29.1475 42.7402 29.0897 42.777 29.0792C42.819 29.0687 42.777 28.9741 42.6562 28.8007C42.315 28.3226 42.147 27.7603 41.9212 26.3311C41.8162 25.6637 41.6062 24.9438 41.3122 24.2502C40.9972 23.4935 40.8082 22.926 40.6035 22.1326C40.5037 21.749 40.425 21.4127 40.425 21.3864C40.425 21.3549 40.551 21.5809 40.7085 21.8804C41.1232 22.6738 41.433 23.1572 42.084 24.0138C42.4042 24.4341 42.7507 24.9281 42.861 25.112C43.3387 25.9264 43.7692 27.2874 43.9005 28.3961L43.9635 28.9531H44.205C44.3363 28.9479 45.066 28.8953 45.8325 28.8323L47.2238 28.7114L48.2475 28.8218C49.4865 28.9584 49.5705 28.9374 46.4625 29.1948C45.1763 29.2999 44.1157 29.3945 44.1053 29.405C44.0947 29.4155 44.1577 29.5469 44.247 29.694C44.3415 29.8359 44.415 29.962 44.415 29.9673C44.415 29.9725 44.2313 29.9778 44.0107 29.983C41.7952 30.0093 41.7952 30.0093 42.168 29.8307C42.4095 29.7203 42.9083 29.673 43.302 29.7308C43.6695 29.7834 43.7482 29.7361 43.5645 29.5837C43.407 29.4523 43.3545 29.4523 41.4907 29.61C37.674 29.9357 31.0695 30.4875 30.135 30.5611C28.728 30.6714 28.7385 30.6661 29.4262 30.8711C29.7465 30.9657 30.3712 31.1601 30.8175 31.3072C32.466 31.8484 33.3112 32.0376 33.8047 31.9746C33.9675 31.9535 34.419 31.88 34.8075 31.8011C35.49 31.6698 35.5897 31.6645 37.5375 31.6593C39.27 31.654 39.6217 31.6435 39.9787 31.5594C40.5772 31.4281 40.9027 31.2652 41.3385 30.8763C41.5485 30.6872 41.7847 30.5032 41.874 30.4717C41.9685 30.4297 42.3832 30.3982 42.9975 30.3929C44.1052 30.3771 44.709 30.2983 44.8507 30.1512C44.9715 30.0303 45.1185 30.0303 45.3862 30.1617C45.7275 30.3246 45.8377 30.5768 45.8377 31.1601C45.8377 31.5542 45.8167 31.6803 45.7065 31.922C45.5543 32.253 45.1658 32.6944 44.94 32.789C44.7983 32.8468 44.7248 32.9467 44.8245 32.9467C44.8455 32.9467 44.9453 33.0202 45.045 33.099L45.2288 33.2514L45.0975 33.3775C44.9137 33.5457 44.6145 34.1079 44.0213 35.3901C43.386 36.7668 43.3177 36.9402 42.7875 38.5429C42.546 39.2627 42.2572 40.0825 42.1417 40.3557C41.9212 40.8917 41.58 41.58 41.5485 41.5485C41.5327 41.538 41.5747 41.3015 41.6325 41.0231C41.7637 40.3767 41.8162 39.9301 41.9475 38.3747C42.1575 35.9155 42.441 34.9277 43.1603 34.213C43.4438 33.924 43.9425 33.6298 44.2733 33.5509C44.4885 33.4931 44.4308 33.3565 44.1525 33.2724C44.0213 33.2304 43.6748 33.1936 43.365 33.1884C42.8505 33.1831 42.7875 33.1936 42.4462 33.3513C42.2467 33.4406 41.9842 33.5352 41.874 33.5562L41.6692 33.593L41.8162 33.3986L41.958 33.2094H41.79C41.4802 33.2094 40.5615 33.4248 39.8475 33.6613C39.4642 33.7874 38.661 34.129 38.0625 34.418C36.6397 35.1011 36.4455 35.1589 35.49 35.1904C34.4767 35.2219 33.9045 35.1116 33.1537 34.7385C32.6497 34.481 32.6025 34.4705 31.9725 34.4127C31.2217 34.3444 30.9435 34.3707 30.6495 34.5336C30.471 34.6334 30.4447 34.6702 30.471 34.7858C30.492 34.8594 30.5182 35.2114 30.5392 35.574C30.5707 36.2676 30.576 36.2413 30.2452 37.4499C30.0877 38.0174 30.03 40.7708 30.156 41.538C30.3292 42.5784 30.5707 43.1617 31.1062 43.8238C31.2585 44.0129 31.983 44.7854 32.718 45.5368C34.272 47.1342 34.8967 47.8436 35.763 48.9944C36.456 49.9192 36.5662 50.0978 36.5033 50.2029C36.4823 50.245 35.8942 50.865 35.2012 51.5849C32.8387 54.0231 32.697 54.1807 32.1037 55.0687C31.4212 56.0881 30.9592 57.1286 30.7282 58.1847C30.5812 58.8416 30.597 60.6859 30.7492 61.3743C30.8595 61.863 31.1587 62.8141 31.1062 62.5041C31.0905 62.4147 31.0642 62.0154 31.0432 61.6108C30.9487 59.3145 31.8675 57.2494 34.1197 54.7009C34.5397 54.2227 37.2802 51.443 37.3275 51.443C37.3695 51.443 37.716 52.1471 37.989 52.783C39.0862 55.3735 40.2727 57.0392 42.3307 58.8678C42.5827 59.0938 42.7875 59.2987 42.7875 59.3197C42.7875 59.3408 42.4882 59.3828 42.1207 59.4196C39.4222 59.6665 37.3432 60.4232 35.5687 61.8157C35.2327 62.0784 33.705 63.4709 33.705 63.5129C33.705 63.5445 33.747 63.5182 34.0725 63.2607C34.2037 63.1556 34.5607 62.9034 34.8705 62.6932C37.2382 61.1116 39.8423 60.2761 43.6012 59.903C44.3888 59.8242 45.4178 59.6928 45.5385 59.656C45.612 59.635 45.5332 59.5877 45.2498 59.4826C44.1735 59.0885 43.071 58.5 42.1522 57.8379C41.5432 57.3965 41.3438 57.2231 41.4015 57.1758C41.4277 57.1548 41.769 56.8973 42.1575 56.6083C44.0475 55.2001 46.0058 53.2349 47.4338 51.3117C50.8778 46.6823 52.71 41.1492 52.71 35.3901C52.71 29.2159 50.5942 23.2939 46.683 18.5227C44.814 16.2421 42.3885 14.1455 39.8737 12.6322C39.2122 12.2381 37.716 11.4394 37.3117 11.2712C37.1175 11.1924 37.1122 11.1924 37.1647 11.287C37.191 11.3395 37.254 11.4184 37.3012 11.4551C37.422 11.555 38.493 12.8581 38.9917 13.5045C40.3147 15.2332 40.761 16.1265 41.559 18.6277C42.105 20.3408 43.008 23.8141 42.9975 24.1819C42.9922 24.2187 42.8032 23.751 42.5722 23.1467C41.8425 21.2288 41.1442 19.5105 40.677 18.4806C40.0732 17.1512 39.0705 15.6536 37.6897 14.0299C37.4535 13.7567 36.7605 12.9842 36.1462 12.3222C35.049 11.1346 34.2352 10.2203 34.1617 10.0994C34.1197 10.0364 35.0017 10.3359 36.183 10.7931C36.5925 10.9507 36.939 11.0768 36.9442 11.0663C36.9495 11.0611 36.6135 10.688 36.1882 10.2413C35.1277 9.12209 34.482 8.36541 33.7365 7.37229C32.3347 5.49638 31.6417 4.04084 31.5 2.66412C31.4527 2.17544 31.5105 1.18756 31.6312 0.562263C31.6732 0.331059 31.6995 0.131382 31.6837 0.115616C31.668 0.0998535 31.5892 0.24173 31.5052 0.42564ZM43.7588 39.0736C43.3808 40.7761 42.4672 43.4875 41.5432 45.6366C40.7452 47.4863 40.3147 48.1221 38.5035 50.1294C37.7737 50.9386 37.3432 51.3695 37.3012 51.3327C37.2907 51.3169 37.1437 51.0279 36.9862 50.6864L36.6922 50.0663L36.8917 49.8509C36.9967 49.73 37.3853 49.2991 37.758 48.8945C38.1255 48.4899 38.5927 47.9434 38.8027 47.6859C40.11 46.0465 41.559 43.4139 43.3965 39.3416C43.6538 38.7688 43.869 38.3379 43.8795 38.38C43.89 38.4167 43.8323 38.732 43.7588 39.0736Z" fill="#608334"/>
<path d="M50.925 48.8525C50.9303 49.1047 51.0458 49.7931 51.093 49.8403C51.1193 49.8666 51.1035 49.5198 51.051 48.9313C51.0143 48.5477 50.925 48.4899 50.925 48.8525Z" fill="#608334"/>
<path d="M51.1403 51.8266C51.135 53.5028 51.0458 56.9131 51.0038 56.9551C50.988 56.9656 50.8988 56.9026 50.799 56.8133C50.694 56.7239 50.5208 56.6294 50.4158 56.6083C49.8855 56.498 49.077 56.6556 48.6465 56.9499C47.9955 57.4018 48.384 57.6225 49.5863 57.4806C49.9328 57.4438 50.4105 57.407 50.6468 57.407H51.0773L51.2873 57.6172C51.4028 57.7328 51.5025 57.8694 51.5025 57.922C51.5025 57.9693 51.4395 58.1585 51.366 58.3424C50.8148 59.6718 50.7885 60.3654 51.2663 61.3585C51.534 61.9103 51.9488 62.4515 52.5053 62.977C52.9568 63.4078 53.2508 63.5865 53.676 63.7126C54.2535 63.8808 54.8258 63.7231 55.377 63.2344C55.734 62.9192 55.6763 62.8719 55.0148 62.9559C54.2378 63.0505 53.5658 62.8771 53.0408 62.4462C52.7573 62.215 52.3635 61.6633 52.2323 61.3218C52.0065 60.7227 51.8963 58.9782 52.0538 58.4475L52.1325 58.1795L52.5315 58.1427C52.7468 58.1217 53.1825 58.0481 53.487 57.9798C54.117 57.8379 55.9178 57.3335 55.9755 57.2809C55.9965 57.2599 55.7708 57.2652 55.4768 57.2914C55.1828 57.3177 54.432 57.3387 53.8125 57.344C52.5 57.3545 52.3478 57.323 52.206 56.9762C52.1325 56.7975 52.1325 56.7187 52.206 56.0724C52.2533 55.6783 52.29 55.074 52.29 54.7272C52.29 54.002 52.2638 53.8969 51.6443 51.8108C51.4238 51.0752 51.2243 50.3868 51.1928 50.287C51.1613 50.1609 51.1455 50.6233 51.1403 51.8266Z" fill="#608334"/>
<path d="M56.7 52.0421C56.7 52.0999 56.6633 52.4887 56.6213 52.9091C56.5215 53.9127 56.3903 56.2405 56.4218 56.54C56.4323 56.6714 56.5058 57.2862 56.5793 57.9062C56.6843 58.789 56.721 59.4406 56.7525 60.9014C56.7735 61.9261 56.784 62.9087 56.7683 63.0873C56.7368 63.4341 56.8208 63.7915 56.9363 63.7915C57.0203 63.7915 57.3195 63.4552 57.3825 63.287C57.4088 63.224 57.456 62.7721 57.4875 62.2834C57.624 60.1973 57.8918 59.5142 58.548 59.6035C58.842 59.6455 59.2883 59.9503 59.4038 60.2025C59.6033 60.6124 59.5613 61.5477 59.3198 62.1993C59.2568 62.3569 58.947 62.8824 58.6215 63.3606C57.897 64.4378 57.6188 64.8897 57.6555 64.9212C57.6713 64.937 57.9443 64.6112 58.2645 64.2013C58.7003 63.6338 58.9628 63.3553 59.325 63.0558C59.8448 62.6302 60.1545 62.2676 60.3173 61.8945C60.4853 61.5214 60.6008 60.7385 60.606 59.9818C60.6113 59.3986 60.5955 59.2672 60.5063 59.0885C60.2753 58.6261 59.8815 58.5368 58.6478 58.6682C58.2068 58.7102 57.7973 58.7365 57.7395 58.7155C57.4928 58.6366 57.4718 58.4475 57.4298 56.0934C57.393 53.6657 57.4193 53.8917 57.015 52.6779C56.8313 52.1366 56.7053 51.8792 56.7 52.0421Z" fill="#608334"/>
<path d="M75.0225 54.8007C74.9122 54.8218 74.865 54.848 74.9017 54.8743C74.9332 54.8953 75.012 55.0477 75.075 55.2106C75.2272 55.6152 75.3742 55.8149 75.5107 55.7939C75.5737 55.7834 75.6997 55.673 75.7942 55.5417C75.894 55.4103 76.041 55.2159 76.125 55.1108C76.2142 55.0057 76.2825 54.8953 76.2825 54.8691C76.2825 54.764 75.4792 54.7167 75.0225 54.8007Z" fill="#608334"/>
<path d="M82.5983 55.0898C82.4145 55.1791 82.0943 55.4418 81.6165 55.8937C81.1073 56.3824 80.7975 56.6294 80.5245 56.7765C79.842 57.1443 79.3223 57.7854 79.4378 58.1007C79.5113 58.3056 79.6688 58.3424 80.2148 58.3004C81.1755 58.2163 82.1573 58.2373 82.4618 58.3424C82.7558 58.4475 83.0025 58.6839 83.0025 58.8573C83.0025 59.0465 82.803 59.3618 82.5195 59.614C82.1468 59.9503 81.4958 60.3707 79.8788 61.3218C77.8628 62.5041 76.986 63.1346 76.776 63.534C76.7078 63.6706 76.7078 63.6864 76.818 63.7442C76.9545 63.8177 77.6475 63.7757 78.0413 63.6653C78.3615 63.5813 80.5245 62.5041 81.0338 62.1783C81.9105 61.616 83.4015 59.7822 83.8163 58.7628C84.0735 58.1217 84.0158 57.7381 83.6325 57.5122C83.4698 57.4228 83.328 57.4018 82.488 57.3808C81.7163 57.3598 81.5168 57.3388 81.48 57.2757C81.4013 57.1496 81.5798 56.9079 82.0313 56.5453C82.551 56.1302 82.887 55.673 83.1075 55.0898C83.1548 54.9742 83.1443 54.9637 83.013 54.9637C82.9343 54.9637 82.7505 55.0215 82.5983 55.0898Z" fill="#608334"/>
<path d="M45.0713 56.4087C45.5175 57.4806 46.0163 58.81 46.3313 59.7611L46.7145 60.9066L46.8825 60.6124C47.1398 60.1605 47.6175 59.6771 47.943 59.5352C48.0953 59.4669 48.6413 59.2672 49.1558 59.0833C50.0535 58.768 50.3475 58.6209 50.253 58.5263C50.1585 58.4317 49.5653 58.3687 48.3788 58.3319C47.124 58.2951 47.1135 58.2951 46.8038 58.1427C46.41 57.9535 45.8115 57.3598 45.3915 56.7502C45.003 56.1932 44.961 56.1459 45.0713 56.4087Z" fill="#608334"/>
<path d="M75.4793 56.8028C75.5003 56.8763 75.5213 58.4475 75.5213 60.2971C75.5213 62.1467 75.5423 63.6916 75.5633 63.7231C75.6683 63.886 76.1355 63.7337 76.1985 63.5182C76.2615 63.308 76.356 61.9996 76.3508 61.4269C76.3403 60.2603 75.8573 57.5437 75.5528 56.9026C75.4898 56.7765 75.4583 56.7292 75.4793 56.8028Z" fill="#608334"/>
<path d="M67.5938 57.3913C67.6883 57.8274 67.8668 60.3812 67.914 62.0574L67.9508 63.3448L68.0453 62.9244C68.1555 62.4147 68.3918 61.8052 68.7015 61.2377C69.1005 60.4968 69.8723 59.4932 70.1453 59.346L70.287 59.2777L70.3133 60.1027C70.3343 60.728 70.371 61.0275 70.4603 61.348C70.5548 61.7001 70.5758 61.9103 70.581 62.6197C70.5863 63.3921 70.5968 63.4814 70.6965 63.6128C70.812 63.7704 70.9853 63.8387 71.1743 63.802C71.2688 63.7862 71.316 63.7126 71.3738 63.5077C71.5208 63.0348 71.7675 61.7001 71.799 61.2535C71.82 61.0012 71.883 60.6702 71.9618 60.4548C72.1823 59.8242 72.3555 59.4091 72.4658 59.2567L72.5655 59.1043L72.744 59.4143C73.0275 59.8925 73.2113 60.3181 73.3058 60.6912C73.5315 61.574 73.7993 62.9139 73.8465 63.3921C73.8675 63.5813 73.899 63.7389 73.92 63.7389C74.2035 63.7389 74.2508 59.5404 73.9935 57.57L73.9568 57.3177L72.1665 57.344C70.2398 57.3703 69.6623 57.4333 69.195 57.6593C68.9693 57.7696 68.9588 57.7854 68.943 58.0219C68.9325 58.1637 68.9063 58.2741 68.88 58.2741C68.8538 58.2741 68.6438 58.1007 68.4128 57.8852C68.187 57.6698 67.8983 57.4438 67.7828 57.3808L67.5623 57.2704L67.5938 57.3913Z" fill="#608334"/>
<path d="M64.785 58.3108C64.3965 58.3739 63.8295 58.5631 63.5513 58.7207C62.727 59.1779 62.076 60.2708 62.0183 61.2692C62.0078 61.4846 61.971 61.7158 61.9395 61.7789C61.8555 61.9523 61.9185 62.4725 62.0603 62.7668C62.1285 62.9087 62.3018 63.1504 62.4488 63.2975C62.6745 63.5287 62.7585 63.5812 63.0263 63.6391C63.1995 63.6758 63.5355 63.7074 63.7718 63.7126C64.1445 63.7126 64.218 63.6969 64.3178 63.597C64.512 63.4078 64.4175 63.2502 63.6773 62.5303C63.3045 62.1677 63 61.8472 63 61.8157C63 61.7421 63.525 61.6213 64.575 61.4479C66.2918 61.1694 66.927 60.9119 67.242 60.3759C67.3575 60.1815 67.3838 60.0764 67.3838 59.7979C67.3785 58.9729 66.9795 58.5578 65.9978 58.3476C65.6723 58.2793 65.079 58.2635 64.785 58.3108ZM65.2103 59.6192C65.4675 59.7191 65.6775 59.8872 65.6775 59.9923C65.6775 60.1237 65.436 60.213 64.6538 60.3759C63.693 60.5703 63.231 60.7227 63.0683 60.8804C62.9055 61.0433 62.916 61.1063 63.105 61.1694C63.1943 61.2009 63.2625 61.2534 63.2625 61.285C63.2625 61.3585 63.0053 61.6896 62.9528 61.6896C62.8635 61.6896 62.7218 61.2377 62.7218 60.9539C62.7218 60.4652 63.0315 59.924 63.4463 59.7033C63.882 59.4721 64.7273 59.4353 65.2103 59.6192Z" fill="#608334"/>
<path d="M46.6463 61.0643C46.41 61.7211 46.3418 62.2203 46.4153 62.7931C46.494 63.4184 46.809 63.9386 46.998 63.7494C47.0873 63.6601 47.1503 63.2502 47.1188 62.956C47.0453 62.3044 46.788 61.1063 46.6988 61.017C46.6883 61.0012 46.662 61.0223 46.6463 61.0643Z" fill="#608334"/>
</g>
<defs>
<clipPath id="clip0_1_14">
<rect width="84" height="65" fill="white"/>
</clipPath>
</defs>
</svg>
