<svg width="18" height="18" viewBox="0 0 18 18" fill="none" xmlns="http://www.w3.org/2000/svg">
<path d="M1.35 18C0.99 18 0.675 17.8312 0.405 17.4937C0.135 17.1562 0 16.7625 0 16.3125V1.6875C0 1.2375 0.135 0.84375 0.405 0.50625C0.675 0.16875 0.99 0 1.35 0H16.65C17.01 0 17.325 0.16875 17.595 0.50625C17.865 0.84375 18 1.2375 18 1.6875V16.3125C18 16.7625 17.865 17.1562 17.595 17.4937C17.325 17.8312 17.01 18 16.65 18H1.35ZM9 9.50625L1.35 3.23437V16.3125H16.65V3.23437L9 9.50625ZM9 7.81875L16.56 1.6875H1.4625L9 7.81875ZM1.35 3.23437V1.6875V16.3125V3.23437Z" fill="white"/>
</svg>
