<svg width="16" height="18" viewBox="0 0 16 18" fill="none" xmlns="http://www.w3.org/2000/svg">
<path d="M14.5778 8.83773C14.5037 6.82386 13.8444 5.11789 12.6 3.71983C11.3556 2.32178 9.83704 1.58114 8.04444 1.49792V0C9.11111 0.0332871 10.1148 0.287101 11.0556 0.761442C11.9963 1.23578 12.8222 1.8724 13.5333 2.67129C14.2444 3.47018 14.8111 4.39806 15.2333 5.45492C15.6556 6.51179 15.8815 7.63939 15.9111 8.83773H14.5778ZM10.8222 8.83773C10.7481 8.00555 10.4519 7.30236 9.93333 6.72816C9.41482 6.15395 8.78519 5.82524 8.04444 5.74202V4.24411C9.15556 4.32732 10.1 4.80166 10.8778 5.66713C11.6556 6.53259 12.0815 7.58946 12.1556 8.83773H10.8222ZM15 18C13.1926 18 11.3963 17.5007 9.61111 16.5021C7.82593 15.5035 6.22222 14.2053 4.8 12.6075C3.37778 11.0097 2.22222 9.20804 1.33333 7.2025C0.444444 5.19695 0 3.17892 0 1.1484C0 0.827417 0.0952369 0.55993 0.285711 0.345944C0.476185 0.131958 0.714282 0.0249653 1 0.0249653H4.11111C4.31276 0.0249653 4.4928 0.104022 4.65124 0.262136C4.80967 0.42025 4.91111 0.632455 4.95556 0.898752L5.55556 4.04438C5.58519 4.27739 5.58148 4.4896 5.54444 4.681C5.50741 4.8724 5.42963 5.03467 5.31111 5.16782L3.08889 7.68932C3.91852 9.23717 4.84815 10.5853 5.87778 11.7337C6.90741 12.8821 8.07407 13.8558 9.37778 14.6546L11.4889 12.208C11.637 12.025 11.8074 11.896 12 11.8211C12.1926 11.7462 12.3852 11.7337 12.5778 11.7836L15.2222 12.4327C15.4491 12.4889 15.6354 12.6153 15.7812 12.8119C15.9271 13.0085 16 13.2399 16 13.5062V16.8766C16 17.1975 15.9048 17.465 15.7143 17.679C15.5238 17.893 15.2857 18 15 18ZM2.42222 6.31623L4.22222 4.26907L3.71111 1.52288H1.33333C1.33333 2.17198 1.42222 2.8835 1.6 3.65742C1.77778 4.43135 2.05185 5.31761 2.42222 6.31623ZM10.6222 15.3786C11.2296 15.6949 11.8889 15.9528 12.6 16.1526C13.3111 16.3523 14 16.4688 14.6667 16.5021V13.8308L12.3778 13.3065L10.6222 15.3786Z" fill="white"/>
</svg>
