<svg width="147" height="153" viewBox="0 0 147 153" fill="none" xmlns="http://www.w3.org/2000/svg">
<path d="M65.8591 0.299042C47.5836 2.31778 30.7118 11.2412 18.6966 25.3139C6.51292 39.5329 0.0280729 57.2627 0 76.3384C0 84.9692 1.57208 94.3608 4.3513 102.26C5.81109 106.444 9.76938 114.607 12.0152 118.118C24.5638 137.691 44.1868 149.891 66.6732 152.144C70.9122 152.582 79.3621 152.348 83.6573 151.676C113.05 147.141 136.968 124.583 144.126 94.6241C147.748 79.4689 146.737 62.9093 141.291 48.4563C132.252 24.4069 111.899 6.61859 87.5875 1.44008C81.3834 0.123507 71.979 -0.373873 65.8591 0.299042ZM84.2749 33.3011C92.9775 34.8517 100.052 38.7137 106.424 45.2965C112.404 51.5283 115.857 58.2282 117.682 67.0931C118.552 71.3647 118.552 79.0885 117.682 83.2138C115.267 94.8289 109.148 104.22 99.7992 110.569C88.0648 118.527 72.7931 119.639 60.1041 113.466C58.8128 112.851 57.6337 112.325 57.4653 112.325C57.3249 112.325 52.2156 113.963 46.1519 115.982C40.0881 118.001 35.0912 119.639 35.0069 119.639C34.9227 119.639 36.3264 115.192 38.095 109.75C39.8635 104.337 41.5198 99.2467 41.7725 98.486L42.1936 97.0817L40.6215 93.6586C37.7861 87.5439 36.8036 83.4479 36.579 76.7772C36.3264 69.0533 37.6458 62.4997 40.7057 56.1217C46.4045 44.3018 57.5495 35.6417 70.0981 33.3596C74.2809 32.5697 80.092 32.5697 84.2749 33.3011Z" fill="#A8CA7E"/>
<path d="M71.887 40.2737C63.6055 41.5318 54.8468 47.0029 49.7936 54.0831C46.7337 58.3839 44.9932 62.2166 43.7299 67.4536C43.0561 70.2038 43 71.0815 43 75.6456C43 79.9757 43.0842 81.1752 43.6176 83.3695C44.4879 86.9974 46.0038 90.8301 47.8005 93.9021L49.2883 96.5352L47.2109 103.06C46.0599 106.658 45.1897 109.584 45.2739 109.584C45.3581 109.584 48.2216 108.677 51.6184 107.536C55.0152 106.424 57.9629 105.488 58.1874 105.488C58.412 105.488 59.4507 106.015 60.4614 106.658C69.6693 112.334 82.639 112.656 92.661 107.477C97.4053 105.02 102.402 100.543 105.406 96.0963C111.751 86.7341 113.463 74.5923 109.898 64.0013C105.715 51.5962 95.5525 42.6728 83.0601 40.3907C80.4493 39.9226 74.6663 39.8641 71.887 40.2737ZM65.4583 56.3359C67.0023 56.3359 67.0585 56.4529 69.3885 62.2458C71.101 66.5759 71.1291 66.7222 70.736 67.6877C70.5115 68.2435 69.9219 69.209 69.3885 69.8234C67.3954 72.1055 67.3673 72.1933 68.3218 73.9487C70.1746 77.3133 73.7679 81.0289 77.5016 83.4573C79.2421 84.5983 82.0214 85.8856 82.7232 85.8856C83.032 85.8856 84.0988 84.8323 85.362 83.2817C86.5411 81.8481 87.6921 80.5901 87.9167 80.5023C88.4501 80.2975 89.8818 80.8826 94.3454 83.2525L97.9948 85.1542L97.9387 87.1437C97.8826 90.713 96.0017 93.1706 92.2399 94.692C89.6291 95.7745 86.9341 95.599 82.6951 94.1361C73.9644 91.1226 68.5744 87.0266 62.8195 79.0102C58.5243 73.0417 56.7838 68.2435 57.4014 64.2938C57.5979 63.2113 58.0471 61.6607 58.412 60.8707C59.6192 58.2376 62.5107 55.78 63.8301 56.2189C64.0547 56.2774 64.7565 56.3359 65.4583 56.3359Z" fill="#A8CA7E"/>
</svg>
