<svg width="147" height="153" viewBox="0 0 147 153" fill="none" xmlns="http://www.w3.org/2000/svg">
<path d="M69.7493 59.3121C63.489 60.8335 58.857 65.6609 57.3972 72.1852C55.5444 80.348 60.3448 89.0081 68.2333 91.6997C71.1529 92.6945 75.0551 92.6945 77.9746 91.6997C82.9435 90.0028 86.8176 85.9653 88.4458 80.7868C89.3722 77.8319 89.3722 73.6773 88.4458 70.7516C86.8176 65.5439 82.9997 61.5064 78.0589 59.7802C75.7288 58.961 72.0232 58.7562 69.7493 59.3121Z" fill="#A8CA7E"/>
<path d="M48.0786 35.6503C41.4253 37.435 35.8668 43.462 34.4632 50.3666C33.8456 53.3509 33.8456 98.2313 34.4632 101.216C35.2773 105.253 37.8039 109.495 41.0603 112.333C42.7728 113.825 46.4784 115.639 48.8085 116.166C51.8123 116.839 94.6796 116.81 97.5711 116.137C101.08 115.317 103.972 113.679 106.611 110.958C109.193 108.267 110.569 105.955 111.58 102.561L112.225 100.367V75.7911V51.2151L111.58 49.0208C110.569 45.627 109.193 43.2864 106.639 40.6825C104.87 38.8393 103.831 38.0494 101.979 37.1132C97.7396 34.9481 98.1045 34.9774 72.867 35.0066C50.7174 35.0066 50.4367 35.0066 48.0786 35.6503ZM101.586 44.1056C106.105 47.2946 104.449 54.4626 99.059 55.077C95.6622 55.4866 92.7145 52.7072 92.7145 49.1378C92.7426 45.5977 95.0726 43.1986 98.4975 43.1694C99.9854 43.1694 100.406 43.2864 101.586 44.1056ZM79.0991 51.3614C87.6333 53.6142 94.3427 60.6066 96.6728 69.6471C97.15 71.461 97.2904 72.8361 97.2904 75.7911C97.2904 78.7461 97.15 80.1211 96.6728 81.9351C94.7638 89.3372 89.9634 95.3641 83.3662 98.6117C79.9694 100.309 77.3867 100.894 73.2038 100.894C68.9367 100.894 66.4663 100.338 62.7607 98.4946C55.2652 94.7497 50.184 87.3477 49.1734 78.7461C47.7978 66.9847 54.8441 55.5159 65.7084 51.8002C69.8912 50.3666 74.804 50.2204 79.0991 51.3614Z" fill="#A8CA7E"/>
<path d="M64.9319 0.396011C41.4348 3.23395 20.9697 17.3359 9.34748 38.7521C4.51893 47.5878 1.54321 57.3012 0.33607 68.0093C-0.225389 72.866 -0.0569512 82.6671 0.644872 87.2312C3.19951 104.142 9.99315 118.127 21.4188 130.005C30.6548 139.631 41.2664 146.126 53.4781 149.637C84.0214 158.355 116.305 145.892 133.823 118.595C145.529 100.368 149.066 78.3956 143.817 56.833C142.553 51.6545 141.262 48.1144 138.651 42.5263C134.974 34.7439 130.763 28.5999 124.727 22.3096C112.656 9.67051 97.3561 2.15144 79.9509 0.249725C76.3575 -0.130618 68.7217 -0.072103 64.9319 0.396011ZM97.9456 27.3126C108.305 29.185 116.642 37.143 119.478 47.8804L120.236 50.7183V76.0257C120.236 103.791 120.292 102.942 118.523 107.506C114.874 117.044 106.761 123.744 97.0754 125.178C95.3068 125.412 88.5693 125.5 71.529 125.412C48.7899 125.324 48.3408 125.295 46.2353 124.68C41.0418 123.159 37.28 120.877 33.6025 117.015C29.6161 112.86 27.1457 107.887 26.1912 102.152C25.5736 98.4367 25.5736 53.9073 26.1912 50.1917C28.1283 38.5766 36.887 29.4191 48.032 27.3126C51.1761 26.7274 94.7172 26.6982 97.9456 27.3126Z" fill="#A8CA7E"/>
</svg>
