<svg width="147" height="154" viewBox="0 0 147 154" fill="none" xmlns="http://www.w3.org/2000/svg">
<path d="M65.3239 1.22424C58.3899 2.16047 53.421 3.47705 46.094 6.3735C43.3148 7.45602 36.7457 11.0547 33.6015 13.2197C23.6918 20.0366 15.4664 29.2819 9.6834 40.1363C5.3321 48.2405 2.52481 57.1347 1.14923 67.0528C0.475483 71.9095 0.475483 82.091 1.14923 86.9477C3.5635 104.297 10.694 119.277 22.232 131.126C33.4892 142.741 47.3292 149.938 63.3588 152.513C67.4013 153.186 78.9393 153.274 83.0099 152.688C103.279 149.734 120.628 139.055 132.699 122.056C147.69 101.02 151.059 72.2606 141.373 47.9772C134.243 30.0718 120.796 15.5603 103.98 7.60231C97.8604 4.70585 91.2633 2.6871 84.1328 1.51682C79.978 0.843901 69.5349 0.668357 65.3239 1.22424ZM93.06 41.9502L93.1161 49.3522H88.0068C80.2868 49.3522 79.9218 49.6741 79.9218 56.4325V60.47H86.5471H93.2003L93.0319 62.5765C92.9477 63.7468 92.6108 67.5502 92.302 71.0025C91.9651 74.4549 91.7125 77.4684 91.7125 77.6439C91.7125 77.9365 90.2807 78.0243 85.5364 78.0243H79.3604V99.8208V121.617H70.9385H62.5166V99.8208V78.0243H58.3057H54.0948L54.1509 69.3056L54.2351 60.6162L58.3899 60.5285L62.5166 60.4407V55.5548C62.5447 52.7168 62.7131 49.7033 62.9377 48.3868C63.3588 45.9292 64.6782 42.6816 66.138 40.6629C68.1593 37.7957 72.3422 35.3673 76.3004 34.7822C77.283 34.6067 81.4378 34.5189 85.5364 34.5481L92.9757 34.5774L93.06 41.9502Z" fill="#A8CA7E"/>
</svg>
