<svg width="148" height="109" viewBox="0 0 148 109" fill="none" xmlns="http://www.w3.org/2000/svg">
<path d="M55.483 0.522339C54.8448 1.87117 54.6043 3.46685 54.669 5.82951C54.7245 7.74256 54.8818 8.73875 55.335 9.93771C55.89 11.41 57.3423 13.5082 59.7288 16.3028C59.9785 16.5937 60.0063 16.6642 59.8675 16.6114C59.3125 16.4086 57.1388 15.8973 55.5663 15.5887C47.528 14.0547 39.2308 14.5572 31.5163 17.061C25.9663 18.8594 20.6938 21.7422 16.189 25.4449C14.7275 26.6527 12.1283 29.1476 10.9905 30.4435C1.66652 41.0843 -1.94098 54.8371 1.00052 68.44C2.69327 76.2156 6.80027 83.7444 12.5723 89.607C13.9968 91.0616 16.0503 92.9041 17.2065 93.7593C17.447 93.9356 17.4655 93.9973 17.5118 94.8172C17.5765 95.8398 17.6783 96.2453 18.3443 98.2377C19.26 100.944 19.5283 102.046 19.852 104.444C19.9538 105.193 20.0555 105.819 20.0833 105.837C20.1573 105.908 20.2498 102.778 20.1943 102.275C20.1573 101.993 19.9353 101.244 19.7133 100.618C19.482 99.9833 19.1768 99.0135 19.0288 98.4493C18.668 97.1093 18.1778 94.9141 18.2333 94.8701C18.2518 94.8524 18.3998 94.9935 18.557 95.1874C18.9085 95.6018 19.482 96.0073 20.37 96.4746L21.0175 96.8096L20.6013 96.4657C18.6495 94.8789 17.7985 93.1598 17.4193 89.9949C17.1418 87.7292 17.077 87.3148 16.9568 87.1033C16.892 86.9798 16.5683 86.6801 16.2445 86.4332C15.9208 86.1776 15.5045 85.7721 15.3195 85.5252C14.45 84.3351 14.265 82.4661 14.8293 80.5178C14.8663 80.3591 14.8108 80.3238 14.4315 80.2269C13.7655 80.0594 11.9803 79.3629 10.935 78.8692C8.35427 77.6438 7.00377 76.5242 7.00377 75.6073C7.00377 74.9197 8.06752 74.1263 8.98327 74.1263C9.98227 74.1263 12.3225 75.1313 14.9125 76.6829C16.226 77.4675 16.2815 77.4939 16.6793 77.4322C16.9013 77.4058 17.0863 77.3352 17.0863 77.2823C17.0863 76.9738 14.9773 75.4663 14.2003 75.2106C13.5805 75.0078 13.3585 74.8668 12.7943 74.329C12.1375 73.7031 11.4345 72.7157 11.157 72.0369C11.0368 71.746 10.935 71.2523 10.9073 70.882C10.8703 70.309 10.898 70.2032 11.0923 69.9123C11.2218 69.7359 11.379 69.4274 11.453 69.2334C11.5548 68.9425 11.5825 68.9161 11.6103 69.0836C11.6565 69.3833 11.9895 69.3304 12.4983 68.9249C13.5158 68.1226 13.9043 67.3733 13.8303 66.3771C13.7748 65.7159 13.6175 65.3721 13.1273 64.8519C12.9053 64.6139 12.8498 64.5257 12.9793 64.5875C13.2568 64.7285 13.8118 65.3368 14.0245 65.7247C14.376 66.3859 14.524 67.0559 14.4778 67.8141C14.4315 68.6868 14.228 69.1365 13.5805 69.8505C12.0913 71.4991 11.8785 73.5003 13.1273 74.0381C13.5713 74.2232 13.8025 74.1439 13.7008 73.8265C13.6638 73.7207 13.6175 73.5797 13.5898 73.5091C13.5713 73.4386 13.7378 73.6414 13.969 73.9588C14.302 74.426 14.5518 74.6376 15.1623 75.0078C15.5878 75.2723 16.4388 75.8542 17.0678 76.3038L18.2055 77.1237H18.9825C19.408 77.1237 20.074 77.1677 20.4625 77.2206L21.1655 77.3088L21.739 76.9033C22.0535 76.6829 22.6085 76.2861 22.96 76.0129C23.3208 75.7484 23.9868 75.3517 24.4493 75.1401C24.9303 74.9197 25.3928 74.6376 25.5315 74.4789C26.0495 73.897 26.0773 73.0155 25.6148 72.0633C25.4113 71.6402 25.1708 71.3669 24.588 70.8644C23.7185 70.115 23.4688 69.7271 23.404 69.0219C23.3115 68.1226 23.8203 66.8002 24.5325 66.0597C24.81 65.7688 24.8378 65.7512 24.6805 65.9804C24.5695 66.1391 24.4215 66.5005 24.3475 66.8002C24.218 67.2499 24.218 67.4262 24.3105 67.867C24.4493 68.5282 24.9303 69.2775 25.5593 69.7888C26.068 70.2032 26.2993 70.2473 26.4288 69.9563C26.512 69.78 26.5213 69.7888 26.5028 70.0357C26.4843 70.2384 26.5583 70.3971 26.7803 70.6352C27.0578 70.9437 27.1318 71.1024 27.1873 71.552C27.2335 71.8782 27.3723 71.8165 27.7423 71.314C27.9365 71.0495 28.0938 70.8644 28.0938 70.8996C28.0938 70.9878 26.6785 73.4122 26.2993 73.9764C25.6148 74.999 24.7545 75.7748 24.0515 76.0305C23.811 76.1186 23.4225 76.3038 23.2005 76.4448C22.7195 76.7622 21.9888 77.4146 21.9888 77.538C21.9888 77.6085 22.368 77.8289 22.4883 77.8289C22.5068 77.8289 22.7843 77.6262 23.108 77.3793C24.4585 76.3479 26.4565 75.2282 27.6868 74.8227C28.3898 74.5935 29.2408 74.523 29.731 74.6464C30.471 74.8403 31.0815 75.8542 30.915 76.6123C30.7208 77.4675 29.7958 78.446 28.5008 79.1601C27.5665 79.6803 27.1595 79.8301 25.9755 80.0858C25.3558 80.218 24.9395 80.3591 24.81 80.4737C24.5695 80.6941 24.0515 81.99 23.9683 82.6071C23.9128 83.0127 23.9313 83.0479 24.5325 83.9207C25.4483 85.2343 26.697 86.8035 27.2243 87.2972C27.8348 87.8791 28.8153 88.4785 29.8143 88.8929C31.396 89.5364 34.1988 90.0566 36.3263 90.0918L37.205 90.1095L37.4085 89.5893C37.686 88.9193 38.2133 87.1385 38.3983 86.2746C38.7775 84.4673 38.87 81.4699 38.6573 77.4322C38.4075 72.5923 38.2225 71.6402 36.354 65.7864L36.1228 65.0723L35.4845 64.7285C34.1248 64.0232 33.3293 63.2122 33.0333 62.2424C32.9223 61.8722 32.8945 61.5283 32.9315 60.8231C32.9778 59.7563 33.209 59.0246 33.653 58.4957C33.8473 58.2665 33.8935 58.1519 33.8103 58.1254C33.7455 58.099 33.0703 57.8697 32.3025 57.6053C30.5265 56.997 30.175 56.8647 28.8338 56.2741C26.5028 55.2602 24.8193 54.2905 23.6908 53.3119C23.1265 52.827 22.7473 52.5978 21.369 51.9543C19.4173 51.0462 18.1593 50.3498 17.7985 49.9971C16.855 49.045 17.6783 48.1017 20.0185 47.4582C21.8315 46.9557 22.849 46.7705 23.7463 46.7705C24.8563 46.7705 25.661 46.938 27.6683 47.5904C29.4165 48.1546 29.472 48.1723 31.507 48.2957C32.7835 48.375 33.0055 48.4103 33.542 48.6483C34.0508 48.8687 35.614 49.2654 35.9563 49.2654C36.1598 49.2654 36.0303 49.0186 35.6233 48.6483C34.7353 47.8284 34.0508 46.7265 33.7085 45.5628C33.616 45.263 33.394 44.8663 33.1258 44.5489C32.2193 43.4293 31.9788 42.8827 31.9788 41.8865C31.9788 41.2694 32.1915 40.1322 32.358 39.8236C32.4228 39.7002 32.3395 39.6737 31.7198 39.6385C30.878 39.5856 30.249 39.3211 29.5738 38.7216C28.362 37.6373 28.251 36.2884 29.2685 35.0013C30.5173 33.4497 32.1823 33.15 33.7085 34.2255C34.2913 34.631 34.9943 35.4597 35.3735 36.1738C35.503 36.4118 35.614 36.6234 35.6233 36.6322C35.6325 36.6499 35.8638 36.5794 36.132 36.4824C36.4003 36.3854 37.1125 36.2443 37.723 36.1826C38.6758 36.0769 38.9348 36.0063 39.5915 35.7066C40.535 35.2658 40.942 35.16 41.6358 35.16C43.1158 35.16 43.8558 36.2091 43.8095 38.2279C43.791 39.1272 43.8003 39.2065 43.9945 39.4004C44.8548 40.2468 45.5948 42.0276 45.9 43.9318C46.196 45.8272 45.9463 47.5111 45.1693 48.7717C44.8825 49.2302 44.2258 49.9002 43.8003 50.147L43.495 50.3233H44.6513C45.7428 50.3233 47.1395 50.4644 48.0738 50.6672C48.3975 50.7377 49.4705 50.676 52.8375 50.4027C63.1513 49.574 70.579 48.9833 72.8175 48.8158C74.1403 48.71 75.278 48.6131 75.3428 48.5954C75.4168 48.5778 75.3428 48.4191 75.13 48.1282C74.5288 47.3259 74.2328 46.3826 73.835 43.9847C73.65 42.8651 73.28 41.6573 72.762 40.4936C72.207 39.2241 71.874 38.272 71.5133 36.9408C71.3375 36.2972 71.1988 35.733 71.1988 35.6889C71.1988 35.6361 71.4208 36.0151 71.6983 36.5176C72.429 37.8488 72.9748 38.6599 74.1218 40.0969C74.686 40.8022 75.2965 41.6309 75.4908 41.9394C76.3325 43.3059 77.091 45.5892 77.3223 47.4494L77.4333 48.3838H77.8588C78.09 48.375 79.3758 48.2869 80.7263 48.1811L83.1775 47.9783L84.9813 48.1634C87.1643 48.3927 87.3123 48.3574 81.8363 48.7894C79.57 48.9657 77.7015 49.1244 77.683 49.142C77.6645 49.1596 77.7755 49.38 77.9328 49.6269C78.0993 49.8649 78.2288 50.0765 78.2288 50.0853C78.2288 50.0941 77.905 50.1029 77.5165 50.1118C73.613 50.1558 73.613 50.1558 74.2698 49.8561C74.6953 49.671 75.574 49.5916 76.2678 49.6886C76.9153 49.7767 77.054 49.6974 76.7303 49.4417C76.4528 49.2213 76.3603 49.2213 73.0765 49.4858C66.3518 50.0324 54.7153 50.9581 53.0688 51.0815C50.5898 51.2666 50.6083 51.2578 51.82 51.6016C52.3843 51.7603 53.485 52.0865 54.2713 52.3334C57.1758 53.2414 58.665 53.5588 59.5345 53.453C59.8213 53.4177 60.6168 53.2943 61.3013 53.1621C62.5038 52.9417 62.6795 52.9328 66.1113 52.924C69.1638 52.9152 69.7835 52.8976 70.4125 52.7565C71.467 52.5361 72.0405 52.2628 72.8083 51.6105C73.1783 51.2931 73.5945 50.9845 73.7518 50.9316C73.9183 50.8611 74.649 50.8082 75.7313 50.7994C77.683 50.7729 78.7468 50.6407 78.9965 50.3939C79.2093 50.1911 79.4683 50.1911 79.94 50.4115C80.5413 50.6848 80.7355 51.108 80.7355 52.0865C80.7355 52.7477 80.6985 52.9593 80.5043 53.3648C80.236 53.9202 79.5515 54.6608 79.1538 54.8194C78.904 54.9164 78.7745 55.0839 78.9503 55.0839C78.9873 55.0839 79.163 55.2073 79.3388 55.3396L79.6625 55.5952L79.4313 55.8068C79.1075 56.0889 78.5803 57.0322 77.535 59.1833C76.4158 61.4931 76.2955 61.784 75.3613 64.4728C74.9358 65.6806 74.427 67.0559 74.2235 67.5143C73.835 68.4136 73.2338 69.5684 73.1783 69.5155C73.1505 69.4979 73.2245 69.1012 73.3263 68.634C73.5575 67.5496 73.65 66.8002 73.8813 64.1907C74.2513 60.0649 74.7508 58.4075 76.018 57.2085C76.5175 56.7237 77.3963 56.23 77.979 56.0977C78.3583 56.0008 78.2565 55.7716 77.7663 55.6305C77.535 55.56 76.9245 55.4983 76.3788 55.4895C75.4723 55.4806 75.3613 55.4983 74.76 55.7627C74.4085 55.9126 73.946 56.0713 73.7518 56.1066L73.391 56.1683L73.65 55.8421L73.8998 55.5247H73.6038C73.058 55.5247 71.4393 55.8862 70.1813 56.2829C69.506 56.4945 68.0908 57.0675 67.0363 57.5524C64.5295 58.6984 64.1873 58.7954 62.5038 58.8483C60.7185 58.9012 59.7103 58.7161 58.3875 58.0901C57.4995 57.6582 57.4163 57.6405 56.3063 57.5436C54.9835 57.4289 54.4933 57.473 53.9753 57.7463C53.6608 57.9138 53.6145 57.9755 53.6608 58.1695C53.6978 58.2929 53.744 58.8836 53.781 59.4919C53.8365 60.6556 53.8458 60.6115 53.263 62.6391C52.9855 63.5913 52.8838 68.2108 53.1058 69.4979C53.411 71.2435 53.8365 72.222 54.78 73.3328C55.0483 73.6502 56.3248 74.9461 57.6198 76.2068C60.3578 78.8868 61.4585 80.077 62.9848 82.0077C64.2058 83.5593 64.4 83.859 64.289 84.0353C64.252 84.1059 63.216 85.1461 61.995 86.3539C57.8325 90.4445 57.5828 90.709 56.5375 92.1988C55.335 93.9091 54.521 95.6547 54.114 97.4267C53.855 98.5287 53.8828 101.623 54.151 102.778C54.3453 103.598 54.8725 105.193 54.78 104.673C54.7523 104.523 54.706 103.853 54.669 103.175C54.5025 99.3221 56.1213 95.8574 60.0895 91.5817C60.8295 90.7795 65.658 86.1159 65.7413 86.1159C65.8153 86.1159 66.4258 87.2972 66.9068 88.3639C68.84 92.7102 70.9305 95.5048 74.5565 98.5727C75.0005 98.9518 75.3613 99.2956 75.3613 99.3309C75.3613 99.3662 74.834 99.4367 74.1865 99.4984C69.432 99.9128 65.769 101.182 62.6425 103.518C62.0505 103.959 59.3588 106.295 59.3588 106.366C59.3588 106.419 59.4328 106.375 60.0063 105.943C60.2375 105.767 60.8665 105.343 61.4123 104.991C65.584 102.337 70.172 100.935 76.795 100.309C78.1825 100.177 79.9955 99.9568 80.2083 99.8951C80.3378 99.8599 80.199 99.7805 79.6995 99.6042C77.8033 98.943 75.8608 97.9556 74.242 96.8448C73.169 96.1043 72.8175 95.8134 72.9193 95.734C72.9655 95.6988 73.5668 95.2668 74.2513 94.7819C77.5813 92.4192 81.0315 89.1221 83.5475 85.8955C89.6155 78.1287 92.8438 68.8455 92.8438 59.1833C92.8438 48.8246 89.116 38.8891 82.2248 30.8843C78.9318 27.0582 74.6583 23.5406 70.2275 21.0017C69.062 20.3405 66.4258 19.0005 65.7135 18.7183C65.3713 18.5861 65.362 18.5861 65.4545 18.7448C65.5008 18.833 65.6118 18.9652 65.695 19.0269C65.9078 19.1944 67.7948 21.3808 68.6735 22.4651C71.0045 25.3655 71.7908 26.8642 73.1968 31.0606C74.1588 33.9346 75.7498 39.7619 75.7313 40.379C75.722 40.4407 75.389 39.6561 74.982 38.6423C73.6963 35.4245 72.466 32.5417 71.6428 30.8138C70.579 28.5833 68.8123 26.0708 66.3795 23.3467C65.9633 22.8883 64.7423 21.5923 63.66 20.4815C61.7268 18.4891 60.293 16.9552 60.1635 16.7524C60.0895 16.6466 61.6435 17.1491 63.7248 17.9161C64.4463 18.1806 65.0568 18.3922 65.066 18.3745C65.0753 18.3657 64.4833 17.7398 63.734 16.9904C61.8655 15.1126 60.7278 13.8432 59.4143 12.177C56.9445 9.02968 55.7235 6.58768 55.4738 4.27791C55.3905 3.45803 55.4923 1.80064 55.705 0.751556C55.779 0.363655 55.8253 0.0286484 55.7975 0.0022049C55.7698 -0.0242462 55.631 0.213783 55.483 0.522339ZM77.0725 65.3633C76.4065 68.2196 74.797 72.7686 73.169 76.3743C71.763 79.4775 71.0045 80.5442 67.8133 83.9119C66.5275 85.2695 65.769 85.9925 65.695 85.9307C65.6765 85.9043 65.4175 85.4194 65.14 84.8464L64.622 83.8061L64.9735 83.4447C65.1585 83.2419 65.843 82.519 66.4998 81.8402C67.1473 81.1613 67.9705 80.2445 68.3405 79.8125C70.6438 77.0619 73.1968 72.6452 76.4343 65.8129C76.8875 64.8519 77.2668 64.129 77.2853 64.1996C77.3038 64.2613 77.202 64.7902 77.0725 65.3633Z" fill="white"/>
<path d="M89.6988 81.769C89.708 82.1921 89.9115 83.347 89.9948 83.4264C90.041 83.4705 90.0133 82.8886 89.9208 81.9012C89.856 81.2577 89.6988 81.1607 89.6988 81.769Z" fill="white"/>
<path d="M90.078 86.759C90.0688 89.5712 89.9115 95.2927 89.8375 95.3633C89.8098 95.3809 89.6525 95.2751 89.4768 95.1252C89.2918 94.9754 88.9865 94.8167 88.8015 94.7814C87.8673 94.5963 86.4428 94.8608 85.6843 95.3545C84.5373 96.1126 85.2218 96.4829 87.34 96.2449C87.9505 96.1832 88.7923 96.1214 89.2085 96.1214H89.967L90.337 96.4741C90.5405 96.668 90.7163 96.8972 90.7163 96.9854C90.7163 97.0647 90.6053 97.3821 90.4758 97.6907C89.5045 99.9211 89.4583 101.085 90.3 102.751C90.7718 103.677 91.5025 104.585 92.483 105.466C93.2785 106.189 93.7965 106.489 94.5458 106.701C95.5633 106.983 96.5715 106.718 97.5428 105.898C98.1718 105.369 98.07 105.29 96.9045 105.431C95.5355 105.59 94.3515 105.299 93.4265 104.576C92.927 104.188 92.2333 103.262 92.002 102.689C91.6043 101.684 91.41 98.7574 91.6875 97.867L91.8263 97.4174L92.5293 97.3557C92.9085 97.3204 93.6763 97.197 94.2128 97.0824C95.3228 96.8443 98.4955 95.998 98.5973 95.9099C98.6343 95.8746 98.2365 95.8834 97.7185 95.9275C97.2005 95.9716 95.8778 96.0068 94.7863 96.0157C92.4738 96.0333 92.2055 95.9804 91.9558 95.3985C91.8263 95.0988 91.8263 94.9666 91.9558 93.8822C92.039 93.221 92.1038 92.2072 92.1038 91.6253C92.1038 90.4087 92.0575 90.2324 90.966 86.7325C90.5775 85.4983 90.226 84.3434 90.1705 84.1759C90.115 83.9643 90.0873 84.7401 90.078 86.759Z" fill="white"/>
<path d="M99.8738 87.1208C99.8738 87.2178 99.809 87.8702 99.735 88.5754C99.5593 90.2593 99.328 94.1647 99.3835 94.6672C99.402 94.8876 99.5315 95.9191 99.661 96.9593C99.846 98.4404 99.9108 99.5336 99.9663 101.984C100.003 103.704 100.022 105.352 99.994 105.652C99.9385 106.234 100.087 106.833 100.29 106.833C100.438 106.833 100.965 106.269 101.076 105.987C101.123 105.881 101.206 105.123 101.261 104.303C101.502 100.803 101.974 99.657 103.13 99.8069C103.648 99.8774 104.434 100.389 104.638 100.812C104.989 101.5 104.915 103.069 104.49 104.162C104.379 104.426 103.833 105.308 103.259 106.11C101.983 107.918 101.493 108.676 101.557 108.729C101.585 108.755 102.066 108.208 102.63 107.521C103.398 106.569 103.861 106.101 104.499 105.599C105.415 104.885 105.96 104.277 106.247 103.651C106.543 103.025 106.747 101.711 106.756 100.442C106.765 99.4631 106.737 99.2427 106.58 98.9429C106.173 98.1671 105.479 98.0173 103.306 98.2377C102.529 98.3082 101.807 98.3523 101.705 98.317C101.271 98.1848 101.234 97.8674 101.16 93.9179C101.095 89.8449 101.141 90.224 100.429 88.1875C100.105 87.2795 99.883 86.8475 99.8738 87.1208Z" fill="white"/>
<path d="M132.156 91.7492C131.962 91.7845 131.879 91.8286 131.944 91.8727C131.999 91.9079 132.138 92.1636 132.249 92.4369C132.517 93.1157 132.776 93.4507 133.017 93.4154C133.128 93.3978 133.35 93.2127 133.516 92.9923C133.692 92.7719 133.951 92.4457 134.099 92.2694C134.256 92.0931 134.376 91.9079 134.376 91.8638C134.376 91.6875 132.961 91.6082 132.156 91.7492Z" fill="#608334"/>
<path d="M145.504 92.2339C145.18 92.3838 144.616 92.8246 143.774 93.5827C142.877 94.4026 142.331 94.817 141.85 95.0638C140.648 95.6809 139.732 96.7565 139.936 97.2854C140.065 97.6292 140.343 97.6909 141.305 97.6204C142.997 97.4794 144.727 97.5146 145.264 97.6909C145.782 97.8673 146.216 98.264 146.216 98.5549C146.216 98.8723 145.865 99.4012 145.365 99.8244C144.709 100.389 143.562 101.094 140.713 102.69C137.161 104.673 135.616 105.731 135.246 106.401C135.126 106.63 135.126 106.657 135.32 106.754C135.56 106.877 136.781 106.807 137.475 106.621C138.039 106.48 141.85 104.673 142.748 104.127C144.292 103.183 146.919 100.106 147.65 98.3962C148.103 97.3207 148.002 96.6771 147.326 96.298C147.04 96.1482 146.79 96.1129 145.31 96.0776C143.95 96.0424 143.599 96.0071 143.534 95.9013C143.395 95.6897 143.71 95.2842 144.505 94.6759C145.421 93.9794 146.013 93.2125 146.401 92.2339C146.485 92.0399 146.466 92.0223 146.235 92.0223C146.096 92.0223 145.772 92.1193 145.504 92.2339Z" fill="white"/>
<path d="M79.385 94.4472C80.1713 96.2457 81.05 98.4761 81.605 100.072L82.2803 101.994L82.5763 101.5C83.0295 100.742 83.8713 99.9307 84.4448 99.6927C84.713 99.5781 85.675 99.2431 86.5815 98.9345C88.1633 98.4056 88.6813 98.1587 88.5148 98.0001C88.3483 97.8414 87.303 97.7356 85.2125 97.6739C83.0018 97.6122 82.9833 97.6122 82.4375 97.3565C81.7438 97.0391 80.6893 96.0429 79.9493 95.0203C79.2648 94.0858 79.1908 94.0065 79.385 94.4472Z" fill="white"/>
<path d="M132.961 95.1083C132.998 95.2317 133.035 97.8677 133.035 100.971C133.035 104.074 133.072 106.666 133.109 106.719C133.294 106.992 134.117 106.736 134.228 106.375C134.339 106.022 134.506 103.827 134.497 102.866C134.478 100.909 133.627 96.3514 133.091 95.2758C132.98 95.0642 132.924 94.9849 132.961 95.1083Z" fill="white"/>
<path d="M119.068 96.095C119.234 96.8267 119.549 101.111 119.632 103.923L119.697 106.083L119.863 105.378C120.057 104.523 120.474 103.5 121.019 102.548C121.722 101.305 123.082 99.6213 123.563 99.3745L123.813 99.2599L123.859 100.644C123.896 101.693 123.961 102.196 124.118 102.733C124.285 103.324 124.322 103.677 124.331 104.867C124.34 106.163 124.359 106.313 124.534 106.533C124.738 106.797 125.043 106.912 125.376 106.85C125.543 106.824 125.626 106.7 125.728 106.357C125.987 105.563 126.421 103.324 126.477 102.575C126.514 102.151 126.625 101.596 126.764 101.235C127.152 100.177 127.457 99.4803 127.652 99.2246L127.827 98.9689L128.142 99.4891C128.641 100.291 128.965 101.005 129.132 101.631C129.529 103.112 130.001 105.36 130.084 106.163C130.121 106.48 130.177 106.745 130.214 106.745C130.713 106.745 130.797 99.7007 130.343 96.3947L130.279 95.9715L127.124 96.0156C123.73 96.0597 122.712 96.1655 121.889 96.5446C121.491 96.7297 121.473 96.7562 121.445 97.1529C121.426 97.3909 121.38 97.576 121.334 97.576C121.288 97.576 120.918 97.2851 120.511 96.9237C120.113 96.5622 119.604 96.1831 119.401 96.0773L119.012 95.8922L119.068 96.095Z" fill="white"/>
<path d="M114.119 97.6384C113.434 97.7442 112.435 98.0616 111.945 98.3261C110.493 99.0931 109.346 100.927 109.244 102.602C109.226 102.963 109.161 103.351 109.105 103.457C108.957 103.748 109.068 104.621 109.318 105.114C109.438 105.352 109.744 105.758 110.003 106.005C110.4 106.393 110.548 106.481 111.02 106.578C111.325 106.639 111.917 106.692 112.334 106.701C112.99 106.701 113.12 106.675 113.296 106.507C113.638 106.19 113.471 105.925 112.167 104.718C111.51 104.109 110.974 103.572 110.974 103.519C110.974 103.395 111.899 103.192 113.749 102.902C116.774 102.434 117.893 102.002 118.448 101.103C118.651 100.777 118.698 100.601 118.698 100.133C118.688 98.7492 117.985 98.0528 116.256 97.7001C115.682 97.5855 114.637 97.5591 114.119 97.6384ZM114.868 99.8336C115.321 100.001 115.691 100.283 115.691 100.46C115.691 100.68 115.266 100.83 113.888 101.103C112.195 101.429 111.381 101.685 111.094 101.949C110.807 102.223 110.826 102.328 111.159 102.434C111.316 102.487 111.436 102.575 111.436 102.628C111.436 102.752 110.983 103.307 110.891 103.307C110.733 103.307 110.484 102.549 110.484 102.073C110.484 101.253 111.029 100.345 111.76 99.9746C112.528 99.5867 114.017 99.525 114.868 99.8336Z" fill="white"/>
<path d="M82.16 102.258C81.7438 103.36 81.6235 104.197 81.753 105.158C81.8918 106.207 82.4468 107.08 82.7798 106.763C82.937 106.613 83.048 105.925 82.9925 105.431C82.863 104.338 82.4098 102.328 82.2525 102.178C82.234 102.152 82.1878 102.187 82.16 102.258Z" fill="white"/>
</svg>
