<svg width="587" height="532" viewBox="0 0 587 532" fill="none" xmlns="http://www.w3.org/2000/svg">
<g clip-path="url(#clip0_1_3)">
<path d="M118.885 138.647C90.3376 145.609 85.981 180.729 112.121 192.99L119.458 196.419H311.838H504.218L511.556 192.99C528.753 184.885 534.371 165.559 523.594 151.012C519.123 144.882 510.983 139.79 503.301 138.335C494.129 136.569 126.223 136.881 118.885 138.647Z" fill="#97B770"/>
<path d="M115.102 307.183C108.223 309.365 101.459 315.184 97.9044 321.834C91.4841 333.575 94.8089 348.434 105.701 356.85C115.102 364.228 100.083 363.708 311.838 363.708C523.594 363.708 508.575 364.228 517.976 356.85C532.537 345.524 532.537 323.704 517.976 312.378C508.575 305.001 523.709 305.521 311.38 305.624C146.515 305.624 119.114 305.936 115.102 307.183Z" fill="#97B770"/>
<path d="M112.121 476.239C94.9236 484.343 89.3058 503.67 100.083 518.217C104.554 524.347 112.694 529.439 120.376 530.893C128.63 532.452 495.047 532.452 503.301 530.893C510.983 529.439 519.123 524.347 523.594 518.217C534.371 503.67 528.753 484.343 511.556 476.239L504.219 472.81H311.838H119.458L112.121 476.239Z" fill="#97B770"/>
</g>
<defs>
<clipPath id="clip0_1_3">
<rect width="587" height="532" fill="white"/>
</clipPath>
</defs>
</svg>
